# xmcd
# Copyright (C) 1995-1998 Ti Kan
#
# Track frame offsets:
#       150
#       19902
#       32451
#       48453
#       64105
#       74678
#       88452
#       98798
#       116325
#       125457
#
# Disc length: 2005 seconds
#
# Revision: 0
# Processed by: cddbd v1.5.2PL0 Copyright (c) Steve Scherf et al.
# Submitted via: CD-Import v1.0
#
DISCID=8a07d30a
DTITLE=Dilem Cornelien - Embrasse-Moi Encore
DYEAR=10
DGENRE=
TTITLE0=Tourterelles
TTITLE1=La Chanson Du Type
TTITLE2=L'heure Solitaire
TTITLE3=Mathérapie
TTITLE4=Pour Des Pensées
TTITLE5=Greensky
TTITLE6=Super Mario Est Mort
TTITLE7=Fisherman
TTITLE8=My Dream
TTITLE9=L'odeur Acrylique
EXTD=
EXTT0=
EXTT1=
EXTT2=
EXTT3=
EXTT4=
EXTT5=
EXTT6=
EXTT7=
EXTT8=
EXTT9=
PLAYORDER=
